<?xml version="1.0" encoding="utf-8" ?>
<svg xmlns="http://www.w3.org/2000/svg" xmlns:xlink="http://www.w3.org/1999/xlink" width="1024" height="1024">
	<path fill="#E4FAFD" d="M732.941 448.481C756.046 448.976 777.09 454.267 793.64 471.385C804.311 482.421 810.844 496.729 813.917 511.632C815.105 517.394 815.027 523.43 815.051 529.292L815.046 552L814.972 615.446C814.289 653.464 795.813 689.497 768.727 715.488C755.817 727.877 739.519 737.593 723.026 744.429C716.971 746.939 710.741 749.363 704.321 750.729C703.095 750.549 702.285 750.506 701.208 749.834L705.621 708.755C706.035 705.659 706.101 701.414 707.033 698.5C707.188 698.014 708.165 697.231 708.556 696.881C707.497 696.86 707.971 697.004 707.12 696.5L728.108 495.25L730.065 494.589L728.629 494.292C728.436 494.028 728.135 493.816 728.049 493.5C727.553 491.68 728.983 486.287 729.231 484.25L731.7 461.535C732.183 457.239 733.041 452.805 732.941 448.481ZM730.065 494.589L728.108 495.25L707.12 696.5C707.971 697.004 707.497 696.86 708.556 696.881C711.726 695.218 715.256 694.036 718.5 692.472C727.938 687.923 736.632 681.788 743.585 673.904C753.869 662.242 761.767 648.103 765.649 633.016C768.858 620.543 768.455 607.475 768.463 594.709L768.47 559.381C768.467 547.765 769.205 535.667 768.338 524.124C767.647 514.919 763.194 506.756 756.19 500.861C748.202 494.137 739.912 493.797 730.065 494.589Z"/>
	<path fill="#1FC4D7" d="M313.671 764.356L699.54 764.448L696.499 792.658C695.16 804.229 694.228 817.009 687.604 827.003C681.693 835.919 673.267 839.884 663.25 842.202C655.799 843.926 647.117 843.096 639.466 843.085L605.439 843.055L468.419 843.059L389.859 843.073L367.294 843.025C363.126 843.01 358.708 843.284 354.585 842.724C349.443 842.025 344.652 840.794 339.967 838.504C331.583 834.406 323.649 826.631 320.611 817.625L320.325 816.75C317.875 809.432 317.585 801.692 316.785 794.067L313.671 764.356Z"/>
	<path fill="#FD5B5B" d="M328.861 283.071C330.255 254.297 344.5 226.72 365.733 207.593C379.771 194.947 397.147 185.494 415.578 181.163C432.344 177.223 448.506 178.37 465.5 178.479L511.005 178.519L555.219 178.478C564.719 178.433 574.26 178.043 583.75 178.568C612.516 180.161 641.795 194.472 660.824 215.974C677.593 234.923 688.032 258.213 690.697 283.37L328.861 283.071Z"/>
	<path fill="#1FC4D7" d="M273.257 342.938L270.582 342.987C260.887 343.091 252.701 340.977 245.627 333.952C239.958 328.323 237.051 320.871 237.038 312.906C237.025 304.798 239.899 297.244 245.721 291.517C249.593 287.708 254.841 284.818 260.155 283.667C268.172 281.932 277.181 282.968 285.369 282.974L328.861 283.071L690.697 283.37L733.763 283.396C741.364 283.388 749.726 282.307 757.149 283.979C762.92 285.278 768.768 288.44 772.947 292.619C778.669 298.341 781.623 305.89 781.557 313.969C781.538 316.324 781.314 318.236 780.663 320.502L780.42 321.4C778.349 328.775 772.878 335.506 766.128 339.132C762.722 340.962 758.071 342.486 754.148 342.55L753.683 342.643C750.519 343.221 747.238 343.096 744.032 343.12L736.267 415.385C733.289 414.539 729.403 414.994 726.298 414.99L707.215 414.97L628.8 414.925L280.414 414.544L273.257 342.938Z"/>
	<path fill="#E4FAFD" d="M273.257 342.938L270.582 342.987C260.887 343.091 252.701 340.977 245.627 333.952C239.958 328.323 237.051 320.871 237.038 312.906C237.025 304.798 239.899 297.244 245.721 291.517C249.593 287.708 254.841 284.818 260.155 283.667C268.172 281.932 277.181 282.968 285.369 282.974L328.861 283.071L690.697 283.37L733.763 283.396C741.364 283.388 749.726 282.307 757.149 283.979C762.92 285.278 768.768 288.44 772.947 292.619C778.669 298.341 781.623 305.89 781.557 313.969C781.538 316.324 781.314 318.236 780.663 320.502L780.42 321.4C778.349 328.775 772.878 335.506 766.128 339.132C762.722 340.962 758.071 342.486 754.148 342.55L273.257 342.938Z"/>
	<path fill="#92D7FB" d="M280.414 414.544L628.8 414.925L707.215 414.97L726.298 414.99C729.403 414.994 733.289 414.539 736.267 415.385L732.941 448.481C733.041 452.805 732.183 457.239 731.7 461.535L729.231 484.25C728.983 486.287 727.553 491.68 728.049 493.5C728.135 493.816 728.436 494.028 728.629 494.292L730.065 494.589L728.108 495.25L707.12 696.5C707.971 697.004 707.497 696.86 708.556 696.881C708.165 697.231 707.188 698.014 707.033 698.5C706.101 701.414 706.035 705.659 705.621 708.755L701.208 749.834C702.285 750.506 703.095 750.549 704.321 750.729L701.441 751.25C700.593 752.626 700.711 754.872 700.549 756.482L699.54 764.448L313.671 764.356L280.414 414.544Z"/>
	<path fill="#FD5B5B" d="M447.993 489.694C449.836 489.362 452.122 489.491 454 489.53C467.595 489.816 483.314 495.694 494 503.996C499.313 508.123 503.96 513.205 508.591 518.065C513.167 513.221 517.67 508.166 522.87 503.976C534.177 494.865 549.174 489.835 563.607 489.513C580.4 489.139 596.78 496.341 608.742 507.935C620.153 518.995 626.567 534.664 626.676 550.5C626.729 558.276 625.719 565.937 622.954 573.25C619.709 581.834 614.511 589.816 609.564 597.5C593.758 622.049 575.68 643.487 555.316 664.353L508.312 704.381C506.558 703.742 504.733 701.942 503.239 700.786L493.448 693.238C457.391 665.213 424.45 630.952 401.642 591.187C395.654 580.747 389.57 569.654 388.131 557.516C386.312 542.173 391.075 526.401 400.659 514.313C412.653 499.185 429.173 491.964 447.993 489.694Z"/>
</svg>
